#!OML:ASF H:\Dans Jumps\Project 1\Capture day 1\Session 1\subject.ASF
:FULLY-SPECIFIED
:DEGREES
204
root 0.181729 18.6804 -6.33697 5.1326 3.67841 0.0882427
lowerback 3.86476 -0.212069 -1.73148
upperback 3.72727 -0.33067 1.01266
thorax 1.67825 -0.21569 2.01826
lowerneck -10.7354 -0.756892 -3.01081
upperneck 34.2441 -1.32675 2.95311
head 13.3248 -0.571152 1.51116
rclavicle -3.03147e-015 -3.18055e-015
rhumerus -19.9221 -12.725 -81.1871
rradius 24.5734
rwrist 33.1652
rhand -18.3058 -24.3491
rfingers 7.12502
rthumb 7.97517 -54.1786
lclavicle -3.03147e-015 -3.18055e-015
lhumerus -15.1165 -2.0575 89.0189
lradius 21.7111
lwrist 13.3194
lhand -27.2281 -5.73359
lfingers 7.12502
lthumb -0.640418 24.2452
rfemur -28.8629 -4.72888 17.7769
rtibia 24.6388
rfoot 11.4763 -3.89127
rtoes 4.83836
lfemur -26.3567 6.11764 -18.0828
ltibia 20.1456
lfoot 15.0297 -4.96799
ltoes -10.4271
205
root 0.180719 18.4403 -6.19126 4.52884 3.72888 0.0495691
lowerback 3.90491 -0.198093 -1.6535
upperback 3.74159 -0.310711 1.01146
thorax 1.66898 -0.203981 1.97293
lowerneck -10.7046 -0.791755 -3.05842
upperneck 34.5939 -1.36516 2.93373
head 13.4738 -0.597095 1.51242
rclavicle 2.08724e-015 -4.57205e-015
rhumerus -20.2316 -13.6017 -80.9833
rradius 23.6292
rwrist 34.1997
rhand -18.2488 -24.3638
rfingers 7.12502
rthumb 8.03024 -54.1912
lclavicle 2.08724e-015 -4.57205e-015
lhumerus -15.4977 -0.996505 88.9209
lradius 20.4838
lwrist 11.804
lhand -26.8428 -5.33285
lfingers 7.12502
lthumb -0.268269 24.6467
rfemur -28.6474 -4.84588 17.8214
rtibia 25.7907
rfoot 10.2903 -2.96217
rtoes 5.19351
lfemur -26.2069 6.40005 -18.2268
ltibia 21.233
lfoot 13.4738 -5.33876
ltoes -9.92275
206
root 0.179244 18.1883 -6.04945 3.89076 3.79316 -0.008548
lowerback 4.01253 -0.184161 -1.56029
upperback 3.73472 -0.291335 1.025
thorax 1.60026 -0.191648 1.93455
lowerneck -10.7107 -0.831203 -3.09912
upperneck 34.9165 -1.40268 2.89182
head 13.6201 -0.624399 1.50314
rclavicle -5.96354e-016 -9.93923e-016
rhumerus -20.5952 -14.554 -80.7135
rradius 22.748
rwrist 35.2891
rhand -18.1872 -24.3315
rfingers 7.12502
rthumb 8.08966 -54.1566
lclavicle -5.96354e-016 -9.93923e-016
lhumerus -15.8938 0.176837 88.7748
lradius 19.2639
lwrist 10.0078
lhand -26.3611 -4.87994
lfingers 7.12502
lthumb 0.197016 25.0997
rfemur -28.4593 -4.97994 17.8977
rtibia 27.3579
rfoot 8.36075 -1.60247
rtoes 6.03997
lfemur -26.1332 6.72926 -18.3706
ltibia 22.8399
lfoot 11.0145 -5.86417
ltoes -8.40924
207
root 0.176986 17.9283 -5.91507 3.2286 3.86464 -0.0825599
lowerback 4.21339 -0.166562 -1.4588
upperback 3.70828 -0.267686 1.0515
thorax 1.45926 -0.176377 1.90508
lowerneck -10.7592 -0.874112 -3.14115
upperneck 35.2007 -1.44173 2.84666
head 13.7601 -0.652619 1.49182
rclavicle 9.44227e-016 -2.5842e-015
rhumerus -21.0041 -15.5665 -80.3841
rradius 21.9503
rwrist 36.4127
rhand -18.0982 -24.2899
rfingers 7.12502
rthumb 8.17555 -54.1117
lclavicle 9.44227e-016 -2.5842e-015
lhumerus -16.2939 1.49215 88.5743
lradius 18.0614
lwrist 7.95678
lhand -25.823 -4.44735
lfingers 7.12502
lthumb 0.716729 25.5312
rfemur -28.3608 -5.07109 17.9844
rtibia 29.375
rfoot 5.54221 -0.165354
rtoes 7.0809
lfemur -26.1728 7.05298 -18.4963
ltibia 24.9825
lfoot 7.53697 -6.22945
ltoes -6.31892
208
root 0.173945 17.6656 -5.79145 2.5441 3.93555 -0.160073
lowerback 4.52589 -0.143001 -1.36248
upperback 3.68168 -0.236748 1.0856
thorax 1.2558 -0.157203 1.88643
lowerneck -10.8672 -0.921946 -3.1903
upperneck 35.4283 -1.48788 2.81439
head 13.8894 -0.682691 1.48484
rclavicle -3.62782e-015 5.76476e-015
rhumerus -21.4086 -16.6638 -80.0083
rradius 21.2259
rwrist 37.5887
rhand -18.0313 -24.2568
rfingers 7.12502
rthumb 8.24009 -54.0762
lclavicle -3.62782e-015 5.76476e-015
lhumerus -16.6617 2.99015 88.3114
lradius 16.8887
lwrist 5.6975
lhand -25.2645 -4.11149
lfingers 7.12502
lthumb 1.25614 25.8646
rfemur -28.4023 -5.08015 18.057
rtibia 31.834
rfoot 1.99783 0.906667
rtoes 8.08967
lfemur -26.36 7.28638 -18.5887
ltibia 27.6429
lfoot 3.338 -6.03269
ltoes -4.2514
209
root 0.170117 17.4071 -5.68155 1.83713 4.0002 -0.235859
lowerback 4.97033 -0.109198 -1.27261
upperback 3.67333 -0.192611 1.11983
thorax 0.997462 -0.131346 1.87124
lowerneck -11.0409 -0.978096 -3.24121
upperneck 35.5831 -1.55067 2.80504
head 14.0022 -0.716585 1.48364
rclavicle -3.42904e-015 1.03368e-014
rhumerus -21.7685 -17.8601 -79.6098
rradius 20.57
rwrist 38.8122
rhand -18.0118 -24.28
rfingers 7.12502
rthumb 8.25891 -54.0985
lclavicle -3.42904e-015 1.03368e-014
lhumerus -16.9802 4.68336 87.9815
lradius 15.7834
lwrist 3.31195
lhand -24.7214 -3.79582
lfingers 7.12502
lthumb 1.78068 26.1765
rfemur -28.6231 -5.02174 18.1236
rtibia 34.6857
rfoot -1.87256 1.36144
rtoes 8.46748
lfemur -26.7337 7.44722 -18.6565
ltibia 30.7602
lfoot -1.02632 -5.15057
ltoes -2.84784
210
root 0.16554 17.1611 -5.58741 1.1373 4.04203 -0.344455
lowerback 5.52519 -0.0618469 -1.15127
upperback 3.69367 -0.128803 1.15798
thorax 0.706875 -0.0952404 1.84132
lowerneck -11.2908 -1.03757 -3.2933
upperneck 35.6678 -1.63018 2.83969
head 14.1018 -0.751357 1.49671
rclavicle 5.2181e-015 4.96962e-015
rhumerus -22.0395 -19.154 -79.217
rradius 19.9673
rwrist 40.0833
rhand -18.074 -24.3819
rfingers 7.12502
rthumb 8.19893 -54.2029
lclavicle 5.2181e-015 4.96962e-015
lhumerus -17.2365 6.5838 87.5814
lradius 14.77
lwrist 0.888676
lhand -24.2582 -3.57666
lfingers 7.12502
lthumb 2.22797 26.3915
rfemur -29.0867 -4.89679 18.2302
rtibia 37.8456
rfoot -5.59826 1.17963
rtoes 8.21261
lfemur -27.3672 7.47853 -18.636
ltibia 34.2474
lfoot -4.95074 -3.61109
ltoes -2.25532
211
root 0.159509 16.9315 -5.50778 0.550185 4.02959 -0.450765
lowerback 6.06811 0.00690599 -1.04673
upperback 3.74103 -0.0357009 1.19149
thorax 0.450373 -0.0454281 1.81354
lowerneck -11.619 -1.09784 -3.33938
upperneck 35.6723 -1.72221 2.9122
head 14.1836 -0.784906 1.52074
rclavicle -4.52235e-015 -2.50469e-014
rhumerus -22.171 -20.5458 -78.8568
rradius 19.3955
rwrist 41.4272
rhand -18.2324 -24.5927
rfingers 7.12502
rthumb 8.04603 -54.4195
lclavicle -4.52235e-015 -2.50469e-014
lhumerus -17.4346 8.62579 87.1329
lradius 13.8868
lwrist -1.43704
lhand -24.0005 -3.51605
lfingers 7.12502
lthumb 2.47691 26.4493
rfemur -29.9072 -4.67668 18.3485
rtibia 41.2016
rfoot -8.73349 0.521499
rtoes 7.32324
lfemur -28.3667 7.37077 -18.5611
ltibia 37.9804
lfoot -8.02265 -1.71115
ltoes -2.42783
212
root 0.152253 16.7195 -5.43819 0.104175 3.93546 -0.553354
lowerback 6.52402 0.101856 -0.963844
upperback 3.81933 0.092556 1.22089
thorax 0.273389 0.020663 1.79023
lowerneck -11.9986 -1.15212 -3.36866
upperneck 35.5973 -1.81356 3.00321
head 14.2407 -0.812781 1.54788
rclavicle 6.95746e-015 1.15295e-014
rhumerus -22.1676 -22.0115 -78.5411
rradius 18.8461
rwrist 42.8804
rhand -18.4734 -24.8977
rfingers 7.12502
rthumb 7.81348 -54.7334
lclavicle 6.95746e-015 1.15295e-014
lhumerus -17.6115 10.7507 86.6548
lradius 13.164
lwrist -3.57192
lhand -23.9337 -3.46296
lfingers 7.12502
lthumb 2.54139 26.5016
rfemur -31.0425 -4.37461 18.4847
rtibia 44.6294
rfoot -11.2281 -0.280621
rtoes 6.38171
lfemur -29.6797 7.17544 -18.4325
ltibia 41.8151
lfoot -10.2164 0.096286
ltoes -2.78824
213
root 0.14413 16.5251 -5.3728 -0.212474 3.7496 -0.655074
lowerback 6.85751 0.219636 -0.904606
upperback 3.92925 0.250775 1.25223
thorax 0.196203 0.100316 1.77904
lowerneck -12.3922 -1.19306 -3.38112
upperneck 35.4516 -1.8882 3.0946
head 14.2676 -0.830836 1.57329
rclavicle 5.81445e-015 -1.37161e-014
rhumerus -22.065 -23.4825 -78.2757
rradius 18.332
rwrist 44.457
rhand -18.7353 -25.2751
rfingers 7.12502
rthumb 7.5607 -55.1199
lclavicle 5.81445e-015 -1.37161e-014
lhumerus -17.8258 12.7863 86.1915
lradius 12.6255
lwrist -5.29408
lhand -24.208 -3.58165
lfingers 7.12502
lthumb 2.27652 26.3859
rfemur -32.3703 -3.99471 18.6331
rtibia 47.9854
rfoot -13.1915 -1.07195
rtoes 6.1102
lfemur -31.1676 6.94926 -18.2481
ltibia 45.5757
lfoot -11.8754 1.67804
ltoes -2.86727
214
root 0.13631 16.3464 -5.30671 -0.456503 3.48513 -0.760014
lowerback 7.0848 0.346307 -0.860124
upperback 4.0705 0.420355 1.29086
thorax 0.209943 0.18447 1.78222
lowerneck -12.74 -1.21309 -3.36899
upperneck 35.2453 -1.92775 3.15429
head 14.2541 -0.835049 1.58556
rclavicle -5.46658e-016 1.39149e-015
rhumerus -21.9164 -24.9213 -78.0462
rradius 17.8532
rwrist 46.2017
rhand -18.9633 -25.6345
rfingers 7.12502
rthumb 7.34059 -55.4872
lclavicle -5.46658e-016 1.39149e-015
lhumerus -18.1298 14.6204 85.7686
lradius 12.2628
lwrist -6.50475
lhand -24.7968 -3.88297
lfingers 7.12502
lthumb 1.70779 26.0899
rfemur -33.6789 -3.57647 18.7889
rtibia 51.124
rfoot -14.7942 -1.72403
rtoes 6.01362
lfemur -32.596 6.75853 -18.0105
ltibia 49.0864
lfoot -13.2481 2.93727
ltoes -2.87248
215
root 0.130247 16.1856 -5.2367 -0.729061 3.16935 -0.88641
lowerback 7.27718 0.469136 -0.788989
upperback 4.2487 0.586356 1.33651
thorax 0.281667 0.266604 1.77764
lowerneck -13.0035 -1.20927 -3.32398
upperneck 35.0188 -1.92743 3.16845
head 14.2097 -0.824607 1.5792
rclavicle -1.14301e-015 1.17283e-014
rhumerus -21.7842 -26.2249 -77.8608
rradius 17.4424
rwrist 48.0062
rhand -19.0993 -25.905
rfingers 7.12502
rthumb 7.20928 -55.7622
lclavicle -1.14301e-015 1.17283e-014
lhumerus -18.5447 16.0873 85.4161
lradius 12.0341
lwrist -7.0811
lhand -25.7388 -4.43753
lfingers 7.12502
lthumb 0.798032 25.5407
rfemur -34.7346 -3.17411 18.9616
rtibia 53.9032
rfoot -16.1995 -2.21987
rtoes 5.76199
lfemur -33.7171 6.66348 -17.718
ltibia 52.1826
lfoot -14.5394 3.93491
ltoes -3.05402
